<?xml version="1.0" encoding="utf-8"?>
<!-- Generator: Adobe Illustrator 27.5.0, SVG Export Plug-In . SVG Version: 6.00 Build 0)  -->
<svg version="1.1" id="Layer_1" xmlns="http://www.w3.org/2000/svg" xmlns:xlink="http://www.w3.org/1999/xlink" x="0px" y="0px"
	 viewBox="0 0 700 700" style="enable-background:new 0 0 700 700;" xml:space="preserve">
<style type="text/css">
	.st0{fill-rule:evenodd;clip-rule:evenodd;}
</style>
<path class="st0" d="M522.3,519c0,15.4-12.5,27.9-27.9,27.9H205.6c-15.4,0-27.9-12.5-27.9-27.9v-48.3c0-42.3,28-79.5,68.7-91.1
	c67.7-19.3,139.5-19.3,207.2,0c40.7,11.6,68.7,48.8,68.7,91.1L522.3,519z M350,153.1c47.6,0,86.1,38.6,86.1,86.1
	s-38.5,86.1-86.1,86.1s-86.1-38.5-86.1-86.1S302.4,153.1,350,153.1z M350,0C156.7,0,0,156.7,0,350c0,193.3,156.7,350,350,350
	s350-156.7,350-350C700,156.7,543.3,0,350,0z"/>
</svg>
